# xmcd
#
# Track frame offsets:
#	150
#	16593
#	31995
#	50968
#	83364
#	104347
#	121736
#	142577
#	155071
#	174311
#	193260
#	216081
#
# Disc length: 3147 seconds
#
# Revision: 1
# Processed by: cddbd v1.5.2PL0 Copyright (c) Steve Scherf et al.
# Submitted via: audiograbber 1.83.01
#
DISCID=930c490c
DTITLE=Kellys Lot - Don´t Give My Blues Away
DYEAR=2014
DGENRE=Blues
TTITLE0=Hush Up
TTITLE1=Revolving Door
TTITLE2=Why Don´t We
TTITLE3=Woman´s Love
TTITLE4=Talking Time
TTITLE5=Right Now
TTITLE6=Boom, Boom, Boom
TTITLE7=Don´t Miss Love
TTITLE8=Stateside
TTITLE9=Reason For The Blues
TTITLE10=That Fool
TTITLE11=Better Way
EXTD=
EXTT0=
EXTT1=
EXTT2=
EXTT3=
EXTT4=
EXTT5=
EXTT6=
EXTT7=
EXTT8=
EXTT9=
EXTT10=
EXTT11=
PLAYORDER=
